<svg height="464pt" viewBox="0 -60 464 464" width="464pt" xmlns="http://www.w3.org/2000/svg"><path d="m64 199.902344v48h-48v32h16v32h400v-32h16v-80zm0 0" fill="#195c85"/><path d="m392 311.902344c0 17.671875-14.328125 32-32 32s-32-14.328125-32-32 14.328125-32 32-32 32 14.328125 32 32zm0 0" fill="#5a6470"/><path d="m368 311.902344c0 4.417968-3.582031 8-8 8s-8-3.582032-8-8c0-4.417969 3.582031-8 8-8s8 3.582031 8 8zm0 0" fill="#aabece"/><path d="m128 311.902344c0 17.671875-14.328125 32-32 32s-32-14.328125-32-32 14.328125-32 32-32 32 14.328125 32 32zm0 0" fill="#5a6470"/><path d="m104 311.902344c0 4.417968-3.582031 8-8 8s-8-3.582032-8-8c0-4.417969 3.582031-8 8-8s8 3.582031 8 8zm0 0" fill="#aabece"/><path d="m432 279.902344h32v32h-32zm0 0" fill="#aabece"/><path d="m0 279.902344h32v32h-32zm0 0" fill="#aabece"/><path d="m112 199.902344 32-112h112v112zm0 0" fill="#87cee9"/><path d="m256 87.902344h112l16 112h-128zm0 0" fill="#41b4d8"/><path d="m247.367188 245.003906 8.632812-21.101562 11.144531 20.886718 20.855469 3.113282-16 16 8 24-24-16-24 16 8-24-16-16zm0 0" fill="#fdbd40"/><path d="m240 55.902344h32v32h-32zm0 0" fill="#aabece"/><g fill="#e9686a"><path d="m256 23.902344c17.671875 0 32 14.328125 32 32h-64c0-17.671875 14.328125-32 32-32zm0 0"/><path d="m192 63.902344h-16c-4.417969 0-8-3.582032-8-8 0-4.417969 3.582031-8 8-8h16c4.417969 0 8 3.582031 8 8 0 4.417968-3.582031 8-8 8zm0 0"/><path d="m200 31.902344c-2.121094 0-4.15625-.84375-5.65625-2.34375l-16-16c-3.03125-3.140625-2.988281-8.128906.097656-11.214844 3.085938-3.085938 8.074219-3.128906 11.214844-.097656l16 16c2.285156 2.289062 2.972656 5.726562 1.734375 8.71875-1.238281 2.988281-4.15625 4.9375-7.390625 4.9375zm0 0"/><path d="m336 63.902344h-16c-4.417969 0-8-3.582032-8-8 0-4.417969 3.582031-8 8-8h16c4.417969 0 8 3.582031 8 8 0 4.417968-3.582031 8-8 8zm0 0"/><path d="m312 31.902344c-3.234375 0-6.152344-1.949219-7.390625-4.9375-1.238281-2.992188-.550781-6.429688 1.734375-8.71875l16-16c3.140625-3.03125 8.128906-2.988282 11.214844.097656 3.085937 3.085938 3.128906 8.074219.097656 11.214844l-16 16c-1.5 1.5-3.535156 2.34375-5.65625 2.34375zm0 0"/></g><path d="m64 199.902344h-24c-13.253906 0-24 10.746094-24 24v24h48zm0 0" fill="#fdbd40"/><path d="m232 175.902344h-16v-48h-16v-16h24c4.417969 0 8 3.582031 8 8zm0 0" fill="#fff"/><path d="m168 111.902344h16v16h-16zm0 0" fill="#fff"/><path d="m416 199.902344h32v32h-32zm0 0" fill="#e9686a"/></svg>